<svg xmlns="http://www.w3.org/2000/svg" width="222.1" height="212.7"><style>.st0{fill:#fff}.st1{fill:#cf1e35}</style><path class="st0" d="M35.9 64c4 2 7.4 3 13.5 3v13.2H57V67c3.3 0 6.2 0 8.9-.8 7.6-2.4 12.7-7.3 13.5-15.5.6-6.1.4-12.4.5-18.5v-3.8l-6.2.2c-.8 0-1.3.6-1.4 1.4l-.1 3.3c-.1 5.4.1 9.5-.1 14.9-.2 8.5-6.4 13.9-15.3 13.2v-33h-7.7v33l-3.6-.2c-6.8-1.1-10.5-4.8-11.2-11.7-.4-4.6-.4-9.2-.5-13.8V29c0-.2-.1-.3-.3-.3l-6.9-.5v20.2c.3 6.8 3.1 12.5 9.3 15.6zM37.1 184.2l4.7-9.5h22.1l3.6 13.7h7.2l-13.6-51.6h-7.3l-26.1 51.3h6.7c.1 0 1.7-2 2.7-3.9zm19.5-39.7l5.9 24.4H44.6l12-24.4zM180.5 178.8l-7.2-17.7 11.5-26.2c-5.8-1.1-6.4-.8-8.4 4.1l-6.4 15.2-1.1-2.5c-1.6-3.9-3.1-7.9-4.9-11.8-2.4-5.1-8.3-7.2-12.4-4.6v4.1c2.8.3 5.3.8 6.5 3.6l6.7 16.4-12 27.3h6.7l8.8-20.4 1.2 2.9c2 4.7 3.7 9.5 6.1 14 2.3 4.3 7.1 5.7 11 3.4v-4.2c-2.9-.2-5.1-.9-6.1-3.6z"/><path class="st1" d="M114.4 109.4v103.2l107.7.1V109.4H114.4zm72 77.1a7.8 7.8 0 0 1-11-3.4c-2.3-4.5-4.1-9.3-6.1-14l-1.2-2.9-8.8 20.4h-6.7l12-27.3-6.7-16.4c-1.2-2.9-3.7-3.4-6.5-3.6v-4.1c4.2-2.6 10.1-.5 12.4 4.6 1.8 3.9 3.3 7.8 4.9 11.8l1.1 2.5 6.4-15.2c2-4.8 2.7-5.1 8.4-4.1L173.1 161l7.2 17.7c1.1 2.6 3.2 3.4 5.9 3.5.2 1.7.2 3.1.2 4.3zM0 102.9h107.7V0H0v102.9zm26.7-74.8l6.9.5c.2 0 .3.1.3.3v6.7c.1 4.6 0 9.2.5 13.8.7 7 4.3 10.6 11.2 11.7 1.1.2 2.2.2 3.6.2v-33h7.7v33c8.9.7 15.1-4.8 15.3-13.2l.1-14.9.1-3.3c0-.8.6-1.4 1.4-1.4l6.2-.2v3.8c-.1 6.2.1 12.4-.5 18.5-.8 8.2-5.9 13.1-13.5 15.5-2.8.9-5.7.9-8.9.9v13.3h-7.6V67c-6.2 0-9.5-1-13.5-3-6.2-3.2-9-8.8-9.1-15.7-.3-6.5-.2-13.1-.2-20.2zM0 212.6l107.7.1V109.4H0v103.2zm53.8-75.8h7.3l13.6 51.6h-7.2l-3.6-13.7H41.8l-4.7 9.5c-.9 1.9-2.6 3.9-2.6 3.9h-6.7l26-51.3z"/><path class="st1" d="M56.6 144.5l-12 24.4h17.9l-5.9-24.4z"/></svg>